<svg height='100px' width='100px'  fill="#336b4b" xmlns="http://www.w3.org/2000/svg" xmlns:xlink="http://www.w3.org/1999/xlink" version="1.1" x="0px" y="0px" viewBox="0 0 100 100" style="enable-background:new 0 0 100 100;" xml:space="preserve"><g><path d="M6.148,47.048c0,1.697-1.376,3.074-3.074,3.074C1.377,50.122,0,48.745,0,47.048c0-1.698,1.377-3.074,3.074-3.074   C4.772,43.974,6.148,45.35,6.148,47.048z M71.598,17.764c1.697,0,3.074-1.376,3.074-3.074s-1.377-3.074-3.074-3.074   c-1.698,0-3.074,1.376-3.074,3.074S69.899,17.764,71.598,17.764z M96.926,43.974c-1.697,0-3.074,1.376-3.074,3.074   c0,1.697,1.377,3.074,3.074,3.074S100,48.745,100,47.048C100,45.35,98.623,43.974,96.926,43.974z M58.868,53.993h-3.933   l20.941-19.674L92.566,44.35l-16.564-17.47L62.63,38.264l-5.5-10.488l11.997-9.729l-20.195,6.901l2.394,29.046h-2.693L46.191,23.04   l20.907-7.145l-23.071,1.397l-5.962,20.961L23.999,26.879l-16.83,17.75l17.861-9.077l20.056,18.441h-3.978L24.584,38.799   L6.982,47.744l14.444-1.233l3.967,17.474h49.41l3.968-17.474l14.205,1.227l-16.74-10.062L58.868,53.993z M25.396,66.436v10.147   c0,6.997,5.801,11.802,12.956,11.802c5.199,0,7.79-6.449,11.745-6.449c3.956,0,6.546,6.449,11.745,6.449   c7.155,0,12.955-4.805,12.955-11.802V66.436H25.396z M38.188,80.857c-3.333,0-6.035-2.919-6.035-6.52   c0-3.602,12.069-3.602,12.069,0C44.222,77.938,41.52,80.857,38.188,80.857z M62.006,80.857c-3.332,0-6.033-2.919-6.033-6.52   c0-3.602,12.068-3.602,12.068,0C68.041,77.938,65.34,80.857,62.006,80.857z"></path></g></svg>