<svg height='100px' width='100px'  fill="#0d2c5e" xmlns:dc="http://purl.org/dc/elements/1.1/" xmlns:cc="http://creativecommons.org/ns#" xmlns:rdf="http://www.w3.org/1999/02/22-rdf-syntax-ns#" xmlns:svg="http://www.w3.org/2000/svg" xmlns="http://www.w3.org/2000/svg" xmlns:sodipodi="http://sodipodi.sourceforge.net/DTD/sodipodi-0.dtd" xmlns:inkscape="http://www.inkscape.org/namespaces/inkscape" viewBox="0 0 714.06786 433.47944" version="1.1" x="0px" y="0px"><g transform="translate(59.559863,-286.28966)"><path style="" d="m 219.21245,286.42611 c -37.928,2.129 -72.437,28.138 -82.91,67.516 l -42.668002,160.49 c -6.827,25.258 8.439002,50.995 33.699002,57.696 113.51,30.41 227.038,30.41 340.612,0 25.197,-6.701 40.401,-32.438 33.697,-57.696 l -42.789,-160.49 c -14.025,-52.566 -70.511,-81.134 -121.093,-61.213 -25.754,10.054 -54.487,10.054 -80.242,0 -12.647,-4.965 -25.662,-7.012 -38.306,-6.303 z m -224.0040015,105.215 c -18.8820005,-3.157 -35.3900005,13.641 -45.9410005,60 -21.038,92.721 -13.476,202.112 124.487,233.703 137.654002,31.403 185.409002,34.425 223.764002,34.425 38.166,0 85.981,-3.022 223.882,-34.425 137.777,-31.591 145.219,-140.982 124.366,-233.703 -21.101,-92.719 -66.027,-67.46 -106.304,0 -7.014,11.67 -14.656,20.868 -22.91,27.88 l 7.758,28.85 c 10.053,37.672 -12.692,76.187 -50.426,86.305 -58.524,15.7 -117.594,23.758 -176.366,23.758 -58.959,0 -117.661,-8.058 -176.247,-23.758 -37.919002,-10.055 -60.542002,-48.573 -50.425002,-86.305 l 7.758,-28.85 c -8.193,-7.012 -15.897,-16.21 -22.909,-27.88 -20.232,-33.731 -41.604,-56.842 -60.4869995,-60 z m 302.4300015,49.092 c 4.095,0 7.393,3.356 7.393,7.516 0,3.288 -2.17,5.977 -5.211,6.908 l 9.819,29.94 31.273,0 c 0,-4.096 3.419,-7.516 7.516,-7.516 4.158,0 7.515,3.42 7.515,7.516 0,4.096 -3.357,7.516 -7.515,7.516 -2.483,0 -4.634,-1.349 -6.06,-3.273 l -25.335,18.546 9.575,29.698 c 0.435,-0.122 0.898,-0.243 1.335,-0.243 4.095,0 7.514,3.298 7.514,7.394 0,4.095 -3.419,7.515 -7.514,7.515 -4.097,0 -7.395,-3.42 -7.395,-7.515 0,-1.8 0.764,-3.423 1.818,-4.728 l -24.848,-18.06 -25.456,18.546 c 0.87,1.241 1.576,2.628 1.576,4.242 0,4.095 -3.42,7.515 -7.516,7.515 -4.096,0 -7.513,-3.42 -7.513,-7.515 0,-4.096 3.417,-7.394 7.513,-7.394 0.807,0 1.559,0.176 2.304,0.365 l 9.696,-29.82 -25.454,-18.546 c -1.365,1.862 -3.579,3.273 -6.061,3.273 -4.097,0 -7.516,-3.42 -7.516,-7.516 0,-4.096 3.479,-7.516 7.637,-7.516 4.096,0 7.516,3.42 7.516,7.516 l 31.393,0 9.698,-29.94 c -2.978,-0.993 -5.211,-3.682 -5.211,-6.908 0,-4.16 3.418,-7.516 7.514,-7.516 z" fill="#0d2c5e"></path></g></svg>