<svg height='100px' width='100px'  fill="#fea002" xmlns:x="http://ns.adobe.com/Extensibility/1.0/" xmlns:i="http://ns.adobe.com/AdobeIllustrator/10.0/" xmlns:graph="http://ns.adobe.com/Graphs/1.0/" xmlns="http://www.w3.org/2000/svg" xmlns:xlink="http://www.w3.org/1999/xlink" version="1.1" x="0px" y="0px" viewBox="0 0 100 100" style="enable-background:new 0 0 100 100;" xml:space="preserve"><g><g i:extraneous="self"><g><path d="M74.1,28.8c-4.1,0-7.4,3.3-7.4,7.4v9.1c0,4.4-3.6,7.9-7.9,7.9h-1.4V9.9c0-4.1-3.3-7.4-7.4-7.4s-7.4,3.3-7.4,7.4v33.2     h-1.4c-4.4,0-7.9-3.6-7.9-7.9V26c0-4.1-3.3-7.4-7.4-7.4s-7.4,3.3-7.4,7.4v9.1c0,12.5,10.2,22.7,22.7,22.7h1.4v31.9     c-6.7,0.8-12.5,2.6-16.5,5.1c-1.3,0.8-0.6,2.8,0.9,2.7c7.2-0.7,14.9-1,23-1c8,0,15.8,0.4,22.9,1c1.5,0.1,2.2-1.9,0.9-2.7     c-4-2.5-9.8-4.3-16.4-5.1V67.9h1.4c12.5,0,22.7-10.2,22.7-22.7v-9.1C81.5,32.1,78.2,28.8,74.1,28.8z"></path></g></g></g></svg>