<svg height='100px' width='100px'  fill="#11a23d" xmlns="http://www.w3.org/2000/svg" xmlns:xlink="http://www.w3.org/1999/xlink" xml:space="preserve" version="1.1" style="shape-rendering:geometricPrecision;text-rendering:geometricPrecision;image-rendering:optimizeQuality;" viewBox="0 0 196 332" x="0px" y="0px" fill-rule="evenodd" clip-rule="evenodd"><defs><style type="text/css">
   
    .fil0 {fill:#11a23d;fill-rule:nonzero}
   
  </style></defs><g><path class="fil0" d="M133 281l0 -44c-50,1 -80,35 -133,-16 69,21 87,-3 133,-4l0 -138 -88 -24 93 -53c8,-4 14,-2 14,8l0 209c13,1 27,4 44,10l-6 19c-15,-6 -27,-8 -38,-10l0 43c0,14 -19,14 -19,0zm-60 -9c71,0 71,60 0,60 -72,0 -72,-60 0,-60zm0 19c-46,0 -46,22 0,22 45,0 45,-22 0,-22zm60 -232l0 -32 -38 22 38 10z"></path></g></svg>