<svg height='100px' width='100px'  fill="#0f4f00" xmlns="http://www.w3.org/2000/svg" xmlns:xlink="http://www.w3.org/1999/xlink" version="1.1" x="0px" y="0px" viewBox="0 0 100 100" enable-background="new 0 0 100 100" xml:space="preserve"><g><path d="M36.714,46.304L13.397,28.899c-0.552,1.132-0.869,2.398-0.869,3.742v24.241v6.22v0.874v3.76   c0,1.497,0.386,2.903,1.06,4.128L36.714,46.304z"></path><path d="M48.577,51.346c1.235,0.921,3.373,0.886,4.579-0.077l31.363-25.09c-1.506-1.312-3.469-2.112-5.623-2.112H21.103   c-2.289,0-4.364,0.903-5.901,2.365L48.577,51.346z"></path><path d="M86.438,28.558l-23.389,18.71l23.099,25.03c0.834-1.322,1.323-2.883,1.323-4.562V32.642   C87.471,31.163,87.097,29.772,86.438,28.558z"></path><path d="M60.656,49.182l-5.593,4.474c-1.183,0.945-2.723,1.421-4.259,1.421c-1.455,0-2.908-0.426-4.056-1.282l-7.575-5.655   l-23.63,26.117c1.497,1.278,3.437,2.054,5.559,2.054h57.794c1.948,0,3.739-0.658,5.18-1.752L60.656,49.182z"></path></g></svg>