<svg height='100px' width='100px'  fill="#ffffff" xmlns="http://www.w3.org/2000/svg" xmlns:xlink="http://www.w3.org/1999/xlink" version="1.1" x="0px" y="0px" viewBox="0 0 40 40" enable-background="new 0 0 40 40" xml:space="preserve"><path d="M-39,33.928c-5.739,0-11.083,0.44-15.643,1.188V1.589l19.876-5.421L-54.643-10h-2.208v45.516  C-64.21,36.98-69,39.32-69,41.963C-69,46.401-55.568,50-39,50s30-3.599,30-8.037S-22.432,33.928-39,33.928z M-51.146,44.579  c-2.541,0-4.601-1.172-4.601-2.616c0-1.442,2.06-2.614,4.601-2.614c2.541,0,4.6,1.172,4.6,2.614  C-46.546,43.407-48.606,44.579-51.146,44.579z"></path><path d="M20,29.285c-3.826,0-7.389,0.293-10.428,0.792V7.726l13.25-3.614L9.572,0H8.099v30.344C3.193,31.32,0,32.88,0,34.642  C0,37.601,8.955,40,20,40s20-2.399,20-5.358C40,31.684,31.045,29.285,20,29.285z M11.902,36.386c-1.694,0-3.067-0.781-3.067-1.744  c0-0.961,1.373-1.742,3.067-1.742s3.067,0.781,3.067,1.742C14.969,35.604,13.596,36.386,11.902,36.386z"></path><path d="M63,26.964c-2.87,0-5.542,0.22-7.821,0.594V10.795l9.938-2.711L55.179,5h-1.104v22.758C50.395,28.49,48,29.66,48,30.981  C48,33.201,54.716,35,63,35s15-1.799,15-4.019C78,28.763,71.284,26.964,63,26.964z M56.927,32.289c-1.271,0-2.3-0.586-2.3-1.308  c0-0.721,1.03-1.307,2.3-1.307s2.3,0.586,2.3,1.307C59.227,31.703,58.197,32.289,56.927,32.289z"></path><path d="M94,24.643c-1.913,0-3.694,0.147-5.214,0.396V13.863l6.625-1.807L88.786,10H88.05v15.172C85.597,25.66,84,26.44,84,27.321  C84,28.8,88.478,30,94,30s10-1.2,10-2.679S99.522,24.643,94,24.643z M89.951,28.193c-0.847,0-1.534-0.391-1.534-0.872  c0-0.48,0.687-0.871,1.534-0.871s1.533,0.391,1.533,0.871C91.484,27.802,90.798,28.193,89.951,28.193z"></path></svg>