<svg height='100px' width='100px'  fill="#094300" xmlns="http://www.w3.org/2000/svg" data-name="Layer 1" viewBox="0 0 512 512" x="0px" y="0px"><title>b1</title><g data-name="Group"><rect data-name="Path" x="309" y="390" width="14" height="55"></rect><path data-name="Path" d="M268.186,292.6A8.053,8.053,0,0,1,275.4,288h32.4L252.67,230.023a7.674,7.674,0,0,1-1.543-8.463,7.754,7.754,0,0,1,7.35-4.56h33.3l-48.342-57.52a8.5,8.5,0,0,1-1.145-8.824A8.024,8.024,0,0,1,249.545,146h15.861L210.762,68.235a2.6,2.6,0,0,0-4.225.006L151.893,146h16.332a8.156,8.156,0,0,1,7.262,4.811,8.281,8.281,0,0,1-1.172,8.706L125.611,217h35.328a7.73,7.73,0,0,1,7.35,4.53,7.5,7.5,0,0,1-1.543,8.353L111.618,288h37.1a8.132,8.132,0,0,1,7.238,4.735,8.245,8.245,0,0,1-1.073,8.646L94.971,374H327.353l-58.195-72.74A8.336,8.336,0,0,1,268.186,292.6Z"></path><path data-name="Path" d="M358.186,292.6A8.053,8.053,0,0,1,365.4,288h32.4L342.67,230.023a7.674,7.674,0,0,1-1.543-8.463,7.754,7.754,0,0,1,7.35-4.56h33.3l-48.342-57.52a8.5,8.5,0,0,1-1.145-8.824A8.024,8.024,0,0,1,339.545,146h15.861L300.762,68.24a2.489,2.489,0,0,0-2.113-1.073,2.522,2.522,0,0,0-2.112,1.1l-33.111,47.13,23.923,34.046A7.97,7.97,0,0,1,280.8,162H266.775l48.343,57.393A8.34,8.34,0,0,1,309.007,233H277.078l55.128,57.867a7.5,7.5,0,0,1,1.543,8.353A7.949,7.949,0,0,1,326.4,304H292.071l55.793,70h69.489l-58.195-72.74A8.336,8.336,0,0,1,358.186,292.6Z"></path><rect data-name="Path" x="209" y="390" width="14" height="55"></rect></g></svg>