<svg height='100px' width='100px'  fill="#fff449" xmlns="http://www.w3.org/2000/svg" xmlns:xlink="http://www.w3.org/1999/xlink" version="1.1" x="0px" y="0px" viewBox="0 0 52 52" style="enable-background:new 0 0 52 52;" xml:space="preserve"><style type="text/css">
	.st0{fill:#fff449;}
</style><g><path d="M0.9992422,48.9208336c0,0.5500488,0.4400025,1,1,1h31.0500469c0.5499878,0,1-0.4499512,1-1v-6.4399414H0.9992422   V48.9208336z"></path><path d="M29.5392818,38.030941c0-1.9801025-1.6099854-3.6000977-3.6000366-3.6000977H9.0992785   c-1.97998,0-3.6000361,1.6199951-3.6000361,3.6000977v2.4499512h24.0400391V38.030941z"></path><path d="M48.0692482,30.2409019c-2.0199585-1.9699707-4.8899536-4.3100586-8.0899658-6.5900879   c-2.8503418-2.0421143-5.6541138-3.8110352-8.0200176-5.0732422l0.8900127-1.2467041l1.1400146,0.8199463   c0.2999878,0.2099609,0.6399536,0.3200684,1,0.3200684c0.5599976,0,1.0799561-0.2700195,1.4099731-0.7199707l2.210022-3.1000977   c0.5499878-0.7700195,0.3699951-1.8499756-0.4000244-2.3999023L24.3892574,2.3807943   c-0.7399902-0.5299071-1.8699951-0.3399658-2.3999634,0.4001465l-2.210022,3.0998538   c-0.2700195,0.3701172-0.3800049,0.8300781-0.2999878,1.2800293c0.0799561,0.4599609,0.3299561,0.8601074,0.7000122,1.1201172   l1.1499634,0.8199463l-4.8900146,6.8499756l-1.1499643-0.8200684c-0.75-0.5299072-1.8800049-0.3399658-2.4100342,0.4001465   l-2.2099609,3.0998535c-0.2700195,0.380127-0.3699951,0.8400879-0.2999878,1.2900391   c0.0799561,0.4499512,0.3199463,0.8500977,0.6999512,1.1199951l13.8099985,9.8599854   c0.3000488,0.2099609,0.6400146,0.3200684,1,0.3200684c0.5599976,0,1.0900269-0.2700195,1.4100342-0.7199707l2.2099609-3.1000977   c0.5500488-0.7700195,0.3700562-1.8499756-0.3999634-2.3999023l-1.1400146-0.8200684l0.8851318-1.2398682   c1.9608765,1.8287354,4.5460796,3.9066162,7.4048443,5.9398193c4.8800049,3.4899902,10.8400269,7.0100098,13.1400146,7.0100098   c0.75,0,1.1500244-0.3299561,1.3500366-0.6098633C51.4692726,34.2509117,50.6992531,32.7908287,48.0692482,30.2409019z"></path></g></svg>