<svg height='100px' width='100px'  fill="#ffc000" xmlns="http://www.w3.org/2000/svg" xmlns:xlink="http://www.w3.org/1999/xlink" version="1.1" x="0px" y="0px" viewBox="0 0 100 100" enable-background="new 0 0 100 100" xml:space="preserve"><path d="M48.826,21.014c20.212,12.234,37.425-9.942,38.98-11.866C85.537,8.054,61.75-4.766,48.826,21.014z M52.971,19.116  c3.463-3.392,27.676-9.199,29.484-8.844L52.971,19.116z"></path><rect x="45.897" y="14.839" width="4.254" height="11.517"></rect><path d="M48.51,24.127c-1.149,0-2.275,0.049-3.387,0.131c-0.015,0.001-0.03,0.001-0.045,0.002c-0.143,0.011-0.288,0.016-0.431,0.027  c-0.01,0.005-0.021,0.012-0.031,0.017C25.418,25.918,12.193,39.457,12.193,57.98c0,15.24,9.787,28.773,25.542,33.088  C41.354,93.613,44.925,95,47.68,95c21.957,0,37.147-18.549,37.147-37.02C84.827,38.228,69.793,24.127,48.51,24.127z M27.156,53.956  c-2.895,12.429,1.73,26,1.73,26c-3.771-5.424-6.504-12.437-6.504-20.55c0-7.706,2.528-13.87,6.006-18.713  c4.61-6.415,10.894-10.498,15.17-12.737C43.559,27.956,30.051,41.527,27.156,53.956z"></path></svg>