<svg height='100px' width='100px'  fill="#ffc000" xmlns="http://www.w3.org/2000/svg" xmlns:xlink="http://www.w3.org/1999/xlink" version="1.1" x="0px" y="0px" viewBox="0 0 100 100" enable-background="new 0 0 100 100" xml:space="preserve"><g><polygon points="56.131,59.226 70.496,33.894 54.869,36.869 61.457,16.567 47.105,8.292 38.959,49.662 53.24,46.645 49.245,57.115    42.728,55.132 47.275,74.84 62.066,61.054  "></polygon></g><g><polygon points="66.558,47.991 68.782,44.066 97.614,45.214 73.868,62.286 85.16,79.344 63.725,79.344 57.958,95.481    39.469,83.028 16.432,88.085 27.951,70.574 2.887,59.522 28.489,53.615 13.925,29.062 37.797,37.309 36.806,42.381 28.971,42.381    36.012,56.449 25.471,61.562 34.864,68.293 30.473,77.843 42.614,73.932 54.657,84.459 61.244,73.379 70.383,71.992 65.155,61.55    75.243,52.836  "></polygon></g></svg>