<svg height='100px' width='100px'  fill="#2b0d0c" xmlns="http://www.w3.org/2000/svg" xmlns:xlink="http://www.w3.org/1999/xlink" xml:space="preserve" version="1.1" style="shape-rendering:geometricPrecision;text-rendering:geometricPrecision;image-rendering:optimizeQuality;" viewBox="0 0 333 333" x="0px" y="0px" fill-rule="evenodd" clip-rule="evenodd"><defs><style type="text/css">
   
    .fil0 {fill:#2b0d0c}
   
  </style></defs><g><path class="fil0" d="M190 121c-16,-12 -45,-22 -61,-6 -17,16 7,37 -50,43 -33,3 -49,25 -44,58 6,39 43,76 82,82 33,5 55,-11 58,-44 6,-57 27,-33 43,-50 16,-16 6,-44 -5,-60l47 -47 12 -2c8,-9 17,-18 26,-26 2,-3 2,-7 -1,-9l-23 -24c-3,-2 -7,-2 -9,0 -9,9 -17,17 -26,26l-2 12 -47 47zm-31 84c-8,9 -23,9 -31,0 -9,-8 -9,-23 0,-31 8,-9 23,-9 31,0 9,8 9,23 0,31zm-75 2l42 42 -9 8 -41 -41 8 -9z"></path></g></svg>